PathFileType	4	(X/Y/Z)	C:/Users/opensim2020/Desktop/walking_exp_matlab/subject03_walking05_straight_03.trc																																																																																																																																					
DataRate	CameraRate	NumFrames	NumMarkers	Units	OrigDataRate	OrigDataStartFrame	OrigNumFrames																																																																																																																																	
100	100	5	45	mm	100	2257	293																																																																																																																																	
Frame#	Time	LFHD			RFHD			LBHD			RBHD			C7			T10			CLAV			STRN			RBAK			LSHO			LUPA			LELB			LFRM			LWRA			LWRB			LFIN			RSHO			RUPA			RELB			RFRM			RWRA			RWRB			RFIN			LASI			RASI			LPSI			RPSI			LTHI			LKNE			LTIB			LANK			LHEE			LTOE			RTHI			RKNE			RTIB			RANK			RHEE			RTOE			*39			*40			*41			*42			*43			*44		
		X1	Y1	Z1	X2	Y2	Z2	X3	Y3	Z3	X4	Y4	Z4	X5	Y5	Z5	X6	Y6	Z6	X7	Y7	Z7	X8	Y8	Z8	X9	Y9	Z9	X10	Y10	Z10	X11	Y11	Z11	X12	Y12	Z12	X13	Y13	Z13	X14	Y14	Z14	X15	Y15	Z15	X16	Y16	Z16	X17	Y17	Z17	X18	Y18	Z18	X19	Y19	Z19	X20	Y20	Z20	X21	Y21	Z21	X22	Y22	Z22	X23	Y23	Z23	X24	Y24	Z24	X25	Y25	Z25	X26	Y26	Z26	X27	Y27	Z27	X28	Y28	Z28	X29	Y29	Z29	X30	Y30	Z30	X31	Y31	Z31	X32	Y32	Z32	X33	Y33	Z33	X34	Y34	Z34	X35	Y35	Z35	X36	Y36	Z36	X37	Y37	Z37	X38	Y38	Z38	X39	Y39	Z39	X40	Y40	Z40	X41	Y41	Z41	X42	Y42	Z42	X43	Y43	Z43	X44	Y44	Z44	X45	Y45	Z45
																																																																																																																																								
147	1.46	-194.80484	1597.53064	-1069.79248	-215.33025	1599.67542	-937.8316	-326.20416	1569.34875	-1086.47217	-341.62158	1570.52234	-956.15149	-375.55032	1401.10022	-1028.68506	-407.85144	1086.25854	-1023.18909	-255.1405	1323.21643	-1023.4303	-209.76678	1159.11365	-1032.44214	-434.47546	1221.74463	-939.51007	-298.21893	1362.89758	-1179.57996	-275.53757	1175.49646	-1261.21692	-233.66876	1062.18384	-1278.99487	-145.85458	970.17188	-1267.1355	-65.85907	890.03308	-1223.99426	-83.5599	874.86182	-1273.87878	-18.75243	825.59167	-1257.73535	-310.65005	1344.8468	-864.69659	-335.83743	1120.63379	-800.55731	-333.34601	1006.26312	-793.00293	-334.12567	869.18555	-797.36591	-316.76889	771.88794	-837.94818	-347.78992	769.34125	-793.4397	-337.13196	695.52875	-808.72229	-253.9287	919.47803	-1149.55566	-234.59543	922.88971	-911.18762	-411.4852	945.4342	-1083.32373	-397.91968	950.8999	-935.1286	-360.67975	626.78168	-1177.89783	-400.17157	451.50528	-1142.33325	-529.30847	296.0498	-1134.52527	-637.25494	115.39549	-1085.44971	-687.19635	103.21533	-1048.40393	-513.05585	26.82232	-1051.5321	-237.00473	632.62762	-869.75116	-178.8486	463.62378	-912.7381	-169.7193	277.15735	-912.50696	-129.96037	65.47712	-960.93115	-169.89539	34.99898	-1015.8595	12.79217	34.72596	-972.27924	-276.5054	1668.99658	-1028.86462	NaN	NaN	NaN	NaN	NaN	NaN	NaN	NaN	NaN	NaN	NaN	NaN	NaN	NaN	NaN
148	1.47	-184.54962	1598.50391	-1069.27759	-204.88788	1600.62866	-937.26569	-316.01517	1570.6145	-1085.77869	-330.93634	1571.73157	-955.30811	-365.27661	1402.06775	-1027.70532	-396.49228	1086.83179	-1023.32483	-244.86833	1324.43799	-1023.01184	-198.82831	1160.57764	-1032.2063	-423.62537	1222.09875	-938.64014	-288.66406	1363.6687	-1179.2428	-267.64276	1175.58679	-1260.64441	-226.61752	1061.85205	-1277.99927	-139.09439	969.32904	-1266.42456	-59.30141	889.12274	-1223.4845	-77.46834	873.68335	-1273.09595	-12.58701	824.59875	-1257.26929	-299.87878	1345.46875	-864.00269	-323.99951	1120.94482	-800.01868	-321.06796	1006.49982	-792.44775	-321.8569	869.45667	-796.8139	-304.70486	772.11658	-837.50745	-335.41019	769.56445	-792.82532	-324.65176	695.8703	-808.23419	-241.85445	919.58691	-1149.25684	-222.53462	924.74652	-910.91907	-399.47153	945.44635	-1083.32288	-386.06259	952.79614	-935.09125	-347.08899	626.23779	-1178.36938	-385.82321	450.7056	-1144.01636	-519.22992	298.27921	-1135.30298	-631.9256	121.15086	-1085.73157	-681.85938	111.37574	-1048.21631	-512.6532	26.79352	-1051.39648	-227.31819	634.38324	-869.53906	-169.19469	465.03458	-912.79053	-162.09833	278.01016	-911.98792	-129.00977	65.69065	-961.58636	-169.96498	35.05029	-1016.22015	13.64537	33.75966	-973.59363	-265.76242	1670.099	-1028.56787	NaN	NaN	NaN	NaN	NaN	NaN	NaN	NaN	NaN	NaN	NaN	NaN	NaN	NaN	NaN
149	1.48	-174.25832	1599.71008	-1068.76196	-194.34741	1601.79456	-936.69812	-305.8125	1572.09387	-1085	-320.49014	1573.24927	-954.54041	-354.9733	1403.41174	-1026.73047	-385.3602	1087.8656	-1023.52747	-234.56265	1325.953	-1022.61615	-187.89163	1162.32104	-1031.89929	-412.81625	1222.91675	-937.66742	-279.1705	1365.06775	-1178.96033	-259.78574	1176.08472	-1259.76465	-219.545	1061.82422	-1276.99133	-132.69807	968.58887	-1265.62878	-53.29773	888.01501	-1222.97229	-72.01866	872.43146	-1272.34241	-7.2056	823.32019	-1256.93225	-289.15463	1346.46875	-863.39441	-311.9397	1121.68372	-799.54303	-308.56744	1007.23767	-791.92639	-309.16766	870.20892	-796.22461	-292.17554	772.79657	-837.08093	-322.64117	770.24103	-792.14099	-312.0213	696.5697	-807.28174	-229.79689	920.0083	-1148.7738	-210.78738	927.21533	-910.64923	-387.29462	945.6687	-1083.46777	-374.45963	955.13501	-935.33264	-332.78186	625.76416	-1178.93433	-370.23795	449.84277	-1146.08301	-507.73886	300.70743	-1136.26917	-625.47119	127.66575	-1085.78894	-675.05145	120.4805	-1047.73779	-512.04169	26.75707	-1051.22351	-217.78636	636.6521	-869.01776	-159.17088	466.89349	-913.08386	-155.79977	278.79834	-911.41949	-128.2767	65.85097	-962.0379	-169.78711	35.05687	-1015.97931	14.36418	33.443	-975.08313	-256.55151	1670.56335	-1026.86951	NaN	NaN	NaN	NaN	NaN	NaN	NaN	NaN	NaN	NaN	NaN	NaN	NaN	NaN	NaN
150	1.49	-163.92789	1601.04077	-1068.15662	-183.6736	1603.21265	-936.46429	-295.63458	1573.84827	-1084.26392	-310.04309	1574.89099	-953.74182	-344.65085	1404.96484	-1025.89807	-374.3988	1089.09473	-1023.67676	-224.3213	1327.62061	-1022.17651	-177.02618	1164.24646	-1031.66675	-401.98883	1224.05432	-936.73706	-269.54825	1366.80603	-1178.52209	-251.88828	1177.01001	-1258.77002	-212.45711	1062.3197	-1275.72351	-126.68242	968.02582	-1264.69275	-47.88061	886.75818	-1222.47302	-67.19141	871.15729	-1271.58936	-2.6423	821.76147	-1256.73584	-278.40128	1347.79065	-862.83441	-299.66885	1122.85754	-799.10052	-295.69583	1008.4104	-791.55371	-296.13577	871.40387	-795.41907	-279.26978	773.94049	-836.56616	-309.39014	771.40649	-791.31244	-298.54944	697.69104	-806.63831	-217.65247	920.73395	-1148.02148	-199.2822	930.06848	-910.40729	-375.32632	946.62592	-1083.98083	-363.13382	957.72021	-935.75769	-317.88055	625.31549	-1179.61316	-353.34439	448.9545	-1148.69873	-494.96109	303.1933	-1137.2085	-617.50067	134.67781	-1085.85291	-666.4798	130.32169	-1047.19214	-511.51718	26.54752	-1051.16321	-207.66183	639.19366	-868.47266	-149.81487	468.85461	-913.07074	-150.69075	279.73853	-910.82117	-127.96329	66.35844	-961.74438	-169.74142	35.17297	-1015.67999	14.64137	33.19563	-975.06946	NaN	NaN	NaN	NaN	NaN	NaN	NaN	NaN	NaN	NaN	NaN	NaN	NaN	NaN	NaN	NaN	NaN	NaN
151	1.5	-153.68161	1602.4408	-1067.65479	-173.29294	1604.35034	-935.63782	-285.45151	1575.70557	-1083.52649	-299.70871	1576.67651	-952.97052	-334.41	1406.56067	-1025.14587	-363.75623	1090.43225	-1023.89337	-214.08302	1329.41687	-1021.78949	-166.18698	1166.23743	-1031.40637	-391.1651	1225.33105	-935.82684	-259.84854	1368.84644	-1178.02966	-243.86488	1178.32703	-1257.75378	-205.66464	1063.16748	-1273.97217	-120.96177	967.63281	-1263.66931	-42.93979	885.3866	-1222.00879	-63.03613	869.83905	-1270.96411	1.16588	819.90308	-1256.69971	-267.7756	1349.51489	-862.3559	-287.24203	1124.35925	-798.68695	-282.62466	1010.00238	-791.27856	-282.58948	872.99542	-795.05347	-266.1922	775.5293	-835.96869	-295.70236	772.96674	-790.32123	-284.92117	699.33942	-805.62616	-205.68939	921.82141	-1147.11511	-187.92522	933.07001	-910.04187	-363.36566	947.54614	-1084.43127	-352.0506	960.28223	-936.30188	-302.59735	624.93811	-1180.54797	-335.23813	447.9935	-1151.70996	-480.55103	305.6947	-1138.69299	-607.88104	141.9408	-1086.12622	-656.05005	140.76582	-1046.65894	-510.17828	26.6457	-1050.73999	-197.21982	641.49811	-867.64923	-141.89699	470.50293	-912.38696	-146.93781	280.41196	-910.00409	-128.11031	66.51851	-961.49164	-169.84027	35.20862	-1015.27045	14.65679	33.00706	-974.70624	-233.99596	1674.58838	-1025.91724	NaN	NaN	NaN	NaN	NaN	NaN	NaN	NaN	NaN	NaN	NaN	NaN	NaN	NaN	NaN
